<svg xmlns="http://www.w3.org/2000/svg" height="48px" viewBox="0 -960 960 960" width="48px" fill="#FFFFFF"><path d="M909-142q-4 24-31.75 32T828-124l-53.83-52.91H392.03q-53.71 0-90.87-37.17Q264-251.26 264-305v-47h371q53.7 0 90.85-37.15Q763-426.3 763-480v-222h46q53.7 0 90.85 37.16Q937-627.67 937-573.96V-168q0 13.49-9 19.74-9 6.26-19 6.26ZM151-575l-23 23h435v-265H151v242ZM87.18-345Q63-345 43-361.5T23-408v-409q0-53.7 37.15-90.85Q97.3-945 151-945h412q53.7 0 90.85 37.15Q691-870.7 691-817v265q0 53.7-37.15 90.85Q616.7-424 563-424H193.37L131-363q-9.82 10-21.27 14-11.46 4-22.55 4ZM151-552v-265 265Z"/></svg>