<svg xmlns="http://www.w3.org/2000/svg" height="48px" viewBox="0 -960 960 960" width="48px" fill="#FFFFFF"><path d="m458-134-93-251-250-92q-20-9-30.5-25.5t-10.5-36Q74-558 84.5-574t30.66-23.64L296-670 132.23-833.77Q118-848 118-867.67q0-19.66 14-34.33 14.67-15 34.33-15 19.67 0 33.65 14.98l702.04 702.04Q916-186 916-166.32q0 19.68-15 34.32-13.67 14-32.83 14-19.17 0-34.4-14.23L650-316l-71.36 181.84Q571-114 555-104t-35.5 10q-19.5 0-36-10T458-134Zm376.55-672.74Q840-788.85 832-769l-73 177q-12.2 33-46.6 40-34.4 7-58.4-17L548-672q-24-24-17.5-58.5T570-778l179-73q18.85-8 36.74-3.05t30.63 17.18q12.73 12.24 18.18 30.13Z"/></svg>